:SAMPLES-PER-SECOND 30
:FULLY-SPECIFIED
:DEGREES
392
root  59.0268 30.9991 36.9419 -16.8148 78.3029 -60.0476
RightUpLeg  -78.563 5.21133 -16.9004
RightLeg  73.4736 1.14296 3.34195
RightFoot  -16.9032 1.64402 37.0766
RightToes  9.54606e-009 0 -3.6325e-017
Spine  32.2585 56.6693 -34.4013
Spine1  -76.9232 57.8326 21.3948
HEad  -124.087 -25.9526 84.6055
LeftShoulder1  12.9895 40.7998 46.1431
LeftArm  24.5403 -2.47786 -170.349
LeftForeArm  2.89964 -37.7904 -8.48848
LeftHand  0.376693 13.4048 6.31526
RightShoulder  1.58207 -11.4181 -33.1111
RightArm  27.2194 -24.5985 -9.3146
RightForeArm  1.26749 50.544 13.526
RightHand  81.0104 73.6506 95.4921
LeftUpLeg  -106.851 21.9273 -35.2659
LeftLeg  56.3911 -0.445093 -0.148905
LeftFoot  -6.49124 -1.09623 25.1442
LeftToes  -8.26734e-010 9.74065e-011 1.64617e-011
393
root  59.5411 31.5437 35.4959 -42.5907 79.6323 -73.333
RightUpLeg  -69.4099 5.51695 -17.1763
RightLeg  78.2727 0.923044 4.11802
RightFoot  -9.81675 -0.700099 46.7116
RightToes  9.54606e-009 0 -3.6325e-017
Spine  65.1999 55.5339 -9.19009
Spine1  -90.5808 54.0335 4.02527
HEad  -114.302 -15.2291 77.8404
LeftShoulder1  12.0731 35.4829 49.3594
LeftArm  5.03229 -9.01688 -176.077
LeftForeArm  7.33486 -41.5366 -9.47712
LeftHand  0.374225 16.235 4.73771
RightShoulder  -0.0904182 -2.27046 -49.8801
RightArm  61.5931 -40.2787 -16.4907
RightForeArm  3.10667 47.1153 11.7814
RightHand  122.642 65.3974 139.399
LeftUpLeg  -89.8313 23.6323 -24.3665
LeftLeg  58.4916 1.10579 2.56374
LeftFoot  -8.12971 -0.559184 21.7298
LeftToes  -8.26734e-010 9.74065e-011 1.64617e-011
394
root  60.7878 31.6582 35.144 -75.8242 82.759 -100.584
RightUpLeg  -63.7623 5.0938 -18.2356
RightLeg  81.5233 1.31623 7.88114
RightFoot  -14.9777 6.67204 71.659
RightToes  9.54606e-009 0 -3.6325e-017
Spine  75.0845 52.8803 -4.99007
Spine1  -97.7993 50.3633 -1.73518
HEad  -114.939 -9.58812 83.0436
LeftShoulder1  13.2432 33.5662 55.7046
LeftArm  7.30017 -9.93488 174.556
LeftForeArm  4.1049 -51.5623 -13.9882
LeftHand  0.352916 17.6617 4.09785
RightShoulder  -7.40607 7.16077 -69.7377
RightArm  95.2853 -63.8073 -21.7068
RightForeArm  16.6891 32.4502 7.86811
RightHand  134.812 55.3831 153.372
LeftUpLeg  -79.5311 21.8104 -22.6901
LeftLeg  60.0735 1.14595 2.8262
LeftFoot  -11.9436 0.189121 22.3992
LeftToes  -8.26734e-010 9.74065e-011 1.64617e-011
395
root  61.3454 31.894 34.529 -117.586 81.5855 -141.751
RightUpLeg  -63.1667 5.91997 -15.3668
RightLeg  82.6799 -4.5149 -30.2753
RightFoot  -24.9829 -11.9276 146.185
RightToes  9.54606e-009 0 -3.6325e-017
Spine  84.8937 41.9834 8.09028
Spine1  -103.078 36.9526 -13.5418
HEad  -118.973 -8.85492 97.7474
LeftShoulder1  11.8485 24.2892 68.4862
LeftArm  12.8968 -13.3002 164.423
LeftForeArm  6.37937 -63.2082 -22.8671
LeftHand  0.328136 19.3837 3.47882
RightShoulder  -32.4825 33.8425 -93.9448
RightArm  -178.049 -51.2905 -93.097
RightForeArm  58.0644 14.9964 10.601
RightHand  138.909 52.2599 155.729
LeftUpLeg  -75.0827 17.1535 -20.7145
LeftLeg  59.4414 1.30543 3.09042
LeftFoot  -11.8776 0.174895 21.7538
LeftToes  -8.26734e-010 9.74065e-011 1.64617e-011
396
root  60.413 32.5814 33.9249 -118.946 77.7693 -121.842
RightUpLeg  -47.4509 12.5478 -5.62483
RightLeg  100.104 -12.2327 -140.667
RightFoot  162.5 -69.0714 7.72423
RightToes  9.54606e-009 0 -3.6325e-017
Spine  101.619 30.5557 17.8978
Spine1  -91.0978 35.7153 -9.39204
HEad  -122.6 -4.1496 109.8
LeftShoulder1  2.85456 8.1025 71.545
LeftArm  18.0261 -27.7362 167.065
LeftForeArm  31.5759 -73.27 -37.331
LeftHand  0.138749 15.0831 2.37017
RightShoulder  -33.5984 33.2196 -93.6306
RightArm  -178.455 -51.3622 -103.46
RightForeArm  80.59 8.99853 15.9624
RightHand  -173.671 79.1271 -164.529
LeftUpLeg  -52.0775 21.3542 -9.91388
LeftLeg  57.3416 0.54982 1.46871
LeftFoot  -11.5017 0.102441 22.7181
LeftToes  -8.26734e-010 9.74065e-011 1.64617e-011
397
root  57.1 30.6386 35.3594 -177.594 69.7946 -126.986
RightUpLeg  -0.775665 9.20842 13.0902
RightLeg  87.5437 -17.6575 -87.733
RightFoot  11.1366 -54.8454 145.544
RightToes  9.54606e-009 0 -3.6325e-017
Spine  136.577 0.504487 26.4331
Spine1  -56.4134 37.2321 8.25066
HEad  -132.387 -0.69072 136.789
LeftShoulder1  0.857785 5.22202 65.8747
LeftArm  22.6967 -37.1299 -174.901
LeftForeArm  71.9983 -77.764 -45.7937
LeftHand  -0.19073 12.0666 -1.90574
RightShoulder  4.29255 -8.56407 -83.256
RightArm  77.0185 -66.5179 18.1617
RightForeArm  9.56196 4.67353 18.0109
RightHand  3.15049 2.72959 -8.01215
LeftUpLeg  -1.39434 15.6476 14.427
LeftLeg  64.2885 0.407948 1.59844
LeftFoot  -11.5695 0.115523 22.4734
LeftToes  -8.26734e-010 9.74065e-011 1.64617e-011
